<?xml version="1.0" standalone="no"?>
<!DOCTYPE svg PUBLIC "-//W3C//DTD SVG 20010904//EN"
 "http://www.w3.org/TR/2001/REC-SVG-20010904/DTD/svg10.dtd">
<svg version="1.0" xmlns="http://www.w3.org/2000/svg"
 width="24.000000pt" height="23.000000pt" viewBox="0 0 24.000000 23.000000"
 preserveAspectRatio="xMidYMid meet">

<g transform="translate(0.000000,23.000000) scale(0.100000,-0.100000)"
fill="#000000" stroke="none">
<path d="M57 223 c-4 -3 -7 -15 -7 -25 0 -13 -7 -18 -25 -18 -20 0 -25 -5 -25
-25 l0 -25 120 0 120 0 0 25 c0 18 -5 25 -20 25 -13 0 -20 7 -20 20 0 27 -25
36 -56 20 -19 -11 -27 -11 -36 -2 -13 13 -41 16 -51 5z m38 -33 c3 -5 2 -10
-4 -10 -5 0 -13 5 -16 10 -3 6 -2 10 4 10 5 0 13 -4 16 -10z m80 0 c-3 -5 -11
-10 -16 -10 -6 0 -7 5 -4 10 3 6 11 10 16 10 6 0 7 -4 4 -10z"/>
<path d="M20 60 l0 -60 100 0 100 0 0 60 0 60 -32 0 c-30 0 -31 0 -13 -20 24
-26 5 -26 -29 1 l-26 20 -29 -20 c-37 -27 -49 -27 -26 -1 18 20 17 20 -13 20
l-32 0 0 -60z"/>
</g>
</svg>
