<?xml version="1.0" standalone="no"?>
<!DOCTYPE svg PUBLIC "-//W3C//DTD SVG 20010904//EN"
 "http://www.w3.org/TR/2001/REC-SVG-20010904/DTD/svg10.dtd">
<svg version="1.0" xmlns="http://www.w3.org/2000/svg"
 width="24.000000pt" height="24.000000pt" viewBox="0 0 24.000000 24.000000"
 preserveAspectRatio="xMidYMid meet">

<g transform="translate(0.000000,24.000000) scale(0.100000,-0.100000)"
fill="#000000" stroke="none">
<path d="M178 203 l-36 -36 -59 16 c-33 10 -65 17 -71 17 -23 0 -12 -19 25
-42 20 -13 41 -26 47 -30 18 -12 -25 -48 -58 -48 l-31 0 32 -19 c17 -11 34
-29 38 -40 9 -28 27 -27 20 2 -5 18 10 37 75 102 74 74 98 115 67 115 -7 0
-29 -16 -49 -37z"/>
<path d="M152 107 l-21 -22 27 -43 c25 -39 52 -55 52 -31 0 13 -30 119 -34
119 -1 0 -12 -10 -24 -23z"/>
</g>
</svg>
