<?xml version="1.0" standalone="no"?>
<!DOCTYPE svg PUBLIC "-//W3C//DTD SVG 20010904//EN"
 "http://www.w3.org/TR/2001/REC-SVG-20010904/DTD/svg10.dtd">
<svg version="1.0" xmlns="http://www.w3.org/2000/svg"
 width="24.000000pt" height="24.000000pt" viewBox="0 0 24.000000 24.000000"
 preserveAspectRatio="xMidYMid meet">

<g transform="translate(0.000000,24.000000) scale(0.100000,-0.100000)"
fill="#000000" stroke="none">
<path d="M103 193 c-8 -36 -11 -38 -58 -44 -28 -3 -46 -7 -40 -8 6 -1 23 -13
38 -26 26 -23 27 -28 18 -62 -6 -20 -9 -39 -7 -41 3 -2 18 6 35 19 l31 23 31
-23 c17 -13 32 -21 35 -19 2 2 -1 21 -7 42 -10 36 -9 40 18 62 15 13 33 24 38
25 6 1 -12 5 -40 8 -48 6 -50 8 -59 44 -5 20 -13 37 -17 37 -4 0 -11 -17 -16
-37z"/>
</g>
</svg>
